<svg width="500" height="330" viewBox="0 0 500 330" fill="none" xmlns="http://www.w3.org/2000/svg">
<path d="M444.633 99.1782L438.253 129.769L434.147 125.803L427.16 130.739L421.82 124.172L409.847 132.792L399.613 115.85L388.2 122.47L383.673 116.292L369.18 124.377L364.82 115.13L374.98 66.4158L429.447 77.55L444.633 99.1782Z" fill="#EBEBEB"/>
<path d="M429.447 77.55L444.633 99.1782L425.74 95.3172L429.447 77.55Z" fill="#DBDBDB"/>
<path d="M436.893 135.881L427.54 180.761L354.173 165.766L363.46 121.249L367.82 130.489L382.32 122.404L386.84 128.581L398.26 121.968L408.487 138.91L420.467 130.291L425.8 136.851L432.793 131.921L436.893 135.881Z" fill="#EBEBEB"/>
<path d="M331.887 130.621L257.12 135.201L251.18 40.1874L306.7 36.7818L327.08 53.7108L331.887 130.621Z" fill="#EBEBEB"/>
<path d="M306.7 36.7818L327.08 53.7108L307.827 54.8922L306.7 36.7818Z" fill="#DBDBDB"/>
<path d="M286 100.716L285.707 98.571C284.953 94.1292 286.18 89.1594 290.08 83.9652C293.6 79.3452 295.507 76.0452 295.293 72.2964C295.053 68.0724 292.22 65.406 286.947 65.6172C283.933 65.7721 281.038 66.831 278.647 68.6532L276.347 63.5514C279.013 61.4064 283.68 59.8224 288.113 59.5914C297.733 59.0634 302.413 64.6998 302.78 70.9896C303.1 76.6194 300.153 80.85 296.407 85.7934C292.967 90.3012 291.84 94.017 292.327 98.2212L292.533 100.373L286 100.716ZM284.813 112.405C284.64 109.342 286.607 107.072 289.533 106.913C292.46 106.755 294.593 108.788 294.767 111.857C294.927 114.754 293.133 117.091 290.04 117.262C287.087 117.427 284.953 115.302 284.787 112.405H284.813Z" fill="#DBDBDB"/>
<path d="M98.9867 84.5526L91.4667 81.18L90.42 83.457C90.2655 83.7824 90.0243 84.06 89.7225 84.26C89.4206 84.46 89.0695 84.5748 88.7067 84.5922C88.2934 84.6056 87.8815 84.6453 87.4733 84.711C87.1151 84.7637 86.7491 84.719 86.4145 84.5819C86.0799 84.4447 85.7891 84.2202 85.5733 83.9322L84.1 81.8928L77.3867 86.658L78.86 88.6974C79.0649 88.9917 79.1855 89.3355 79.209 89.6923C79.2325 90.049 79.158 90.4054 78.9933 90.7236C78.8033 91.0865 78.6319 91.4588 78.48 91.839C78.3479 92.1742 78.1261 92.4675 77.8383 92.6872C77.5506 92.907 77.2077 93.045 76.8467 93.0864L74.3333 93.3306L75.14 101.468L77.6667 101.218C78.029 101.189 78.3924 101.259 78.7178 101.419C79.0432 101.58 79.3182 101.825 79.5133 102.128C79.62 102.3 79.7333 102.465 79.8533 102.63C79.9733 102.795 80.0933 102.953 80.22 103.112C80.4501 103.389 80.598 103.724 80.6475 104.079C80.6969 104.434 80.6458 104.796 80.5 105.125L79.4467 107.422L86.9733 110.801L88.02 108.511C88.176 108.185 88.4186 107.909 88.7216 107.71C89.0247 107.511 89.3768 107.398 89.74 107.382C90.1486 107.365 90.5559 107.326 90.96 107.263C91.3183 107.211 91.6842 107.255 92.0189 107.392C92.3535 107.529 92.6442 107.754 92.86 108.042L94.3333 110.081L101.053 105.316L99.58 103.277C99.3688 102.985 99.2443 102.641 99.2208 102.283C99.1972 101.924 99.2755 101.567 99.4467 101.251C99.6324 100.89 99.7993 100.52 99.9467 100.142C100.075 99.8041 100.296 99.5085 100.584 99.2881C100.873 99.0678 101.218 98.9314 101.58 98.8944L104.107 98.6436L103.293 90.5058L100.767 90.75C100.407 90.7813 100.045 90.7134 99.7212 90.5538C99.3977 90.3943 99.125 90.1492 98.9333 89.8458C98.82 89.6742 98.7067 89.5092 98.5867 89.3442C98.4667 89.1792 98.3467 89.0142 98.22 88.8624C97.9915 88.5819 97.8447 88.2449 97.7953 87.8878C97.746 87.5308 97.796 87.1672 97.94 86.8362L98.9867 84.5526ZM94.72 92.0832C95.4996 93.1602 95.9391 94.442 95.9828 95.7663C96.0266 97.0906 95.6726 98.398 94.9658 99.5232C94.2589 100.648 93.2309 101.541 92.0117 102.087C90.7926 102.634 89.437 102.811 88.1165 102.595C86.796 102.379 85.5699 101.78 84.5932 100.874C83.6165 99.9678 82.9331 98.7954 82.6295 97.5049C82.3259 96.2145 82.4157 94.8638 82.8874 93.6238C83.3592 92.3839 84.1919 91.3103 85.28 90.5388C86.7388 89.5046 88.5528 89.0863 90.323 89.3759C92.0933 89.6655 93.6749 90.6393 94.72 92.0832V92.0832Z" fill="#EBEBEB"/>
<path d="M438.92 192.529L433.907 195.393L434.793 196.911C434.926 197.129 434.992 197.38 434.983 197.634C434.975 197.888 434.893 198.134 434.747 198.343C434.593 198.581 434.447 198.825 434.313 199.082C434.204 199.31 434.031 199.502 433.815 199.635C433.598 199.769 433.348 199.838 433.093 199.835H431.333V205.57H433.107C433.361 205.567 433.612 205.636 433.828 205.77C434.044 205.903 434.217 206.095 434.327 206.323C434.46 206.58 434.607 206.824 434.76 207.062C434.906 207.271 434.988 207.517 434.997 207.771C435.005 208.025 434.939 208.276 434.807 208.494L433.92 210.012L438.933 212.876L439.827 211.352C439.956 211.136 440.144 210.959 440.369 210.843C440.594 210.726 440.847 210.674 441.1 210.692H441.953C442.206 210.675 442.459 210.727 442.684 210.844C442.909 210.96 443.097 211.136 443.227 211.352L444.12 212.883L449.127 210.019L448.24 208.494C448.114 208.275 448.052 208.026 448.061 207.774C448.071 207.522 448.151 207.277 448.293 207.068C448.447 206.831 448.593 206.58 448.727 206.329C448.836 206.101 449.009 205.91 449.226 205.776C449.442 205.643 449.692 205.574 449.947 205.577H451.72V199.841H449.933C449.679 199.844 449.428 199.775 449.212 199.642C448.996 199.509 448.823 199.317 448.713 199.089C448.58 198.838 448.433 198.587 448.28 198.35C448.138 198.141 448.058 197.896 448.048 197.644C448.039 197.393 448.101 197.143 448.227 196.924L449.113 195.4L444.107 192.535L443.213 194.04C443.084 194.256 442.896 194.432 442.671 194.549C442.446 194.666 442.193 194.718 441.94 194.7H441.513H441.087C440.833 194.717 440.579 194.664 440.353 194.548C440.127 194.431 439.938 194.256 439.807 194.04L438.92 192.529ZM441.513 198.007C442.453 198.005 443.371 198.28 444.153 198.796C444.935 199.312 445.544 200.045 445.904 200.904C446.264 201.763 446.359 202.709 446.176 203.621C445.993 204.533 445.541 205.371 444.876 206.029C444.212 206.686 443.366 207.134 442.444 207.315C441.523 207.496 440.568 207.402 439.7 207.046C438.833 206.69 438.092 206.086 437.571 205.312C437.049 204.539 436.772 203.629 436.773 202.699C436.772 202.082 436.894 201.471 437.132 200.901C437.37 200.331 437.719 199.813 438.159 199.377C438.6 198.94 439.122 198.594 439.698 198.358C440.273 198.122 440.89 198 441.513 198V198.007Z" fill="#EBEBEB"/>
<path d="M114.2 60.1656L109.607 63.6504L110.667 65.043C110.825 65.2414 110.922 65.4806 110.947 65.7322C110.972 65.9837 110.923 66.237 110.807 66.462C110.679 66.7189 110.568 66.9834 110.473 67.254C110.391 67.4923 110.243 67.7033 110.047 67.863C109.85 68.0228 109.612 68.125 109.36 68.1582L107.6 68.3826L108.347 74.0652L110.107 73.8408C110.363 73.8054 110.624 73.8424 110.86 73.9475C111.096 74.0526 111.297 74.2215 111.44 74.4348C111.601 74.6644 111.774 74.8847 111.96 75.0948C112.132 75.2818 112.246 75.5136 112.288 75.7628C112.331 76.012 112.3 76.2681 112.2 76.5006L111.533 78.1242L116.867 80.322L117.533 78.6984C117.633 78.4655 117.796 78.2647 118.004 78.1189C118.213 77.9731 118.458 77.888 118.713 77.8734L119.14 77.8272L119.56 77.7612C119.807 77.7151 120.061 77.737 120.297 77.8242C120.532 77.9115 120.738 78.0609 120.893 78.2562L121.98 79.662L126.573 76.1772L125.5 74.7846C125.345 74.5834 125.25 74.3434 125.225 74.0915C125.2 73.8397 125.247 73.586 125.36 73.359C125.486 73.1038 125.598 72.8415 125.693 72.5736C125.776 72.3352 125.923 72.1243 126.12 71.9645C126.317 71.8048 126.554 71.7026 126.807 71.6694L128.567 71.445L127.82 65.7624L126.06 65.9868C125.804 66.0228 125.544 65.9868 125.308 65.8829C125.072 65.779 124.871 65.6114 124.727 65.3994C124.56 65.1618 124.387 64.9374 124.2 64.7394C124.045 64.5484 123.944 64.3195 123.909 64.0768C123.874 63.8341 123.905 63.5865 124 63.36L124.667 61.7364L119.333 59.5386L118.667 61.1622C118.566 61.3942 118.403 61.5941 118.194 61.7397C117.986 61.8854 117.741 61.971 117.487 61.9872L117.06 62.0268L116.667 62.04C116.42 62.086 116.165 62.0642 115.93 61.9769C115.695 61.8897 115.489 61.7403 115.333 61.545L114.2 60.1656ZM117.487 65.2674C118.415 65.1492 119.359 65.3059 120.197 65.7178C121.036 66.1297 121.733 66.7783 122.2 67.5818C122.667 68.3853 122.883 69.3077 122.821 70.2325C122.759 71.1574 122.421 72.0434 121.851 72.7788C121.281 73.5141 120.504 74.0658 119.617 74.3643C118.731 74.6628 117.775 74.6947 116.87 74.456C115.966 74.2173 115.153 73.7187 114.534 73.0231C113.915 72.3275 113.518 71.466 113.393 70.5474C113.31 69.9343 113.35 69.311 113.511 68.7133C113.672 68.1156 113.95 67.5553 114.331 67.0646C114.711 66.5739 115.186 66.1625 115.728 65.8541C116.269 65.5456 116.867 65.3462 117.487 65.2674Z" fill="#EBEBEB"/>
<path d="M79.88 209.075C80.1305 202.695 80.0414 196.306 79.6133 189.935C78.6595 176.779 76.6329 163.721 73.5533 150.889C71.86 143.669 69.78 136.567 67.6067 129.472C67.54 129.254 67.1933 129.314 67.2533 129.538C73.9667 154.552 79.4733 180.358 79.0933 206.362C78.9867 213.622 78.1333 220.783 77.44 228.017C77.44 228.208 77.74 228.287 77.7867 228.089C79.1667 221.879 79.62 215.398 79.88 209.075Z" fill="#EBEBEB"/>
<path d="M67.2533 129.518C67.2533 129.518 57.0933 155.06 59.3667 161.04C61.64 167.02 66.3333 168.3 66.3333 168.3C66.3333 168.3 60.1133 177.091 64.46 185.335C68.8067 193.578 78.46 193.189 79.1267 202.534C79.1067 202.58 79.64 163.502 67.2533 129.518Z" fill="#EBEBEB"/>
<path d="M78 186.443C78.0164 186.401 78.0164 186.354 78 186.311C76.6665 168.874 73.3614 151.639 68.1467 134.93C68.1467 134.884 68.0467 134.897 68.06 134.93C70.0733 142.41 71.8511 149.921 73.3933 157.463C72.0274 156.182 70.3587 155.26 68.54 154.783C68.54 154.783 68.4867 154.823 68.54 154.836C70.4506 155.529 72.1685 156.66 73.5533 158.136C73.8467 159.621 74.14 161.099 74.4133 162.584C72.14 160.07 68.9933 158.822 65.84 157.634C65.8329 157.637 65.8268 157.643 65.8225 157.649C65.8183 157.655 65.816 157.663 65.816 157.671C65.816 157.678 65.8183 157.686 65.8225 157.692C65.8268 157.699 65.8329 157.704 65.84 157.707C69.1267 159.027 72.3933 160.73 74.62 163.535C75.3933 167.772 76.0733 172.025 76.66 176.293C75.0186 174.59 72.9135 173.396 70.6 172.854C70.5267 172.854 70.4867 172.94 70.56 172.96C72.9365 173.652 75.0582 175.015 76.6667 176.88H76.7067C76.9067 178.376 77.0978 179.879 77.28 181.388C76.0102 180.324 74.5765 179.468 73.0333 178.853C72.9933 178.853 72.9667 178.9 73.0333 178.913C74.6081 179.588 76.0502 180.533 77.2933 181.705C77.2933 181.705 77.3267 181.705 77.3467 181.705C77.5133 183.137 77.68 184.569 77.8267 186.001C75.5374 183.261 72.5665 181.16 69.2067 179.903C69.1925 179.903 69.179 179.908 69.169 179.918C69.159 179.928 69.1533 179.942 69.1533 179.956C69.1533 179.97 69.159 179.983 69.169 179.993C69.179 180.003 69.1925 180.008 69.2067 180.008C72.5243 181.456 75.4384 183.678 77.7 186.483C77.7249 186.514 77.7585 186.537 77.7965 186.548C77.8345 186.56 77.8752 186.56 77.9133 186.549C78.1333 188.747 78.3333 190.945 78.4933 193.149C78.4933 193.182 78.5467 193.182 78.5467 193.149C78.3733 190.936 78.1911 188.701 78 186.443Z" fill="white"/>
<path d="M69.8333 152.269C67.9933 151.135 65.8914 150.485 63.7267 150.381C63.7161 150.381 63.7059 150.385 63.6984 150.393C63.6909 150.4 63.6867 150.41 63.6867 150.421C63.6867 150.431 63.6909 150.441 63.6984 150.449C63.7059 150.456 63.7161 150.46 63.7267 150.46C65.8195 150.853 67.8505 151.519 69.7667 152.44C69.8467 152.46 69.9067 152.321 69.8333 152.269Z" fill="white"/>
<path d="M71.0667 179.309C69.6525 178.505 68.0953 177.979 66.48 177.758C66.4267 177.758 66.42 177.83 66.48 177.844C68.0573 178.157 69.583 178.685 71.0133 179.414C71.0733 179.447 71.1267 179.342 71.0667 179.309Z" fill="white"/>
<path d="M106.6 161.482C102.302 164.423 98.3545 167.838 94.8333 171.659C91.202 175.706 88.401 180.413 86.5867 185.519C82.7252 196.157 80.6489 207.349 80.44 218.651C80.3105 224.91 80.9168 231.163 82.2467 237.283C82.2575 237.328 82.2851 237.366 82.3239 237.391C82.3627 237.416 82.4097 237.425 82.4551 237.417C82.5005 237.408 82.5409 237.383 82.5678 237.346C82.5948 237.309 82.6063 237.263 82.6 237.217C80.9452 226.417 81.0082 215.427 82.7867 204.646C84.5333 194.086 87.2733 182.589 94.06 174.002C97.7533 169.323 102.36 165.647 106.913 161.845C107.153 161.634 106.847 161.311 106.6 161.482Z" fill="#EBEBEB"/>
<path d="M81.9333 211.035C84.3799 207.117 87.255 203.479 90.5067 200.185C95.5933 195.149 99.8733 191.572 100.54 188.245C101.207 184.919 95.4467 182.464 95.4467 182.464C95.4467 182.464 102.48 183.718 104.407 180.794C106.333 177.87 107.26 160.934 107.26 160.934C107.26 160.934 94.46 169.983 88.4933 182.668C82.5267 195.353 81.9333 211.035 81.9333 211.035Z" fill="#EBEBEB"/>
<path d="M102.667 176.821C101.824 176.696 100.969 176.668 100.12 176.735C100.02 176.735 100.027 176.906 100.12 176.913C100.96 176.913 101.807 176.873 102.647 176.913C102.656 176.911 102.665 176.906 102.672 176.898C102.679 176.891 102.683 176.883 102.686 176.873C102.688 176.863 102.687 176.853 102.684 176.844C102.68 176.835 102.674 176.827 102.667 176.821V176.821Z" fill="white"/>
<path d="M93.4733 193.248C92.1217 193.275 90.7856 193.539 89.5267 194.027C89.5267 194.027 89.5267 194.093 89.5267 194.086C90.86 193.776 92.1467 193.651 93.4667 193.426C93.4839 193.419 93.4987 193.407 93.5092 193.391C93.5198 193.376 93.5258 193.358 93.5265 193.339C93.5272 193.321 93.5226 193.302 93.5132 193.286C93.5038 193.27 93.49 193.257 93.4733 193.248V193.248Z" fill="white"/>
<path d="M90.7133 187.572C90.1522 187.568 89.5918 187.616 89.04 187.717C89.0298 187.721 89.021 187.728 89.0148 187.737C89.0086 187.745 89.0052 187.756 89.0052 187.767C89.0052 187.777 89.0086 187.788 89.0148 187.797C89.021 187.806 89.0298 187.812 89.04 187.816C89.5988 187.848 90.1595 187.824 90.7133 187.744C90.7363 187.744 90.7584 187.735 90.7746 187.718C90.7909 187.702 90.8 187.681 90.8 187.658C90.8 187.635 90.7909 187.613 90.7746 187.597C90.7584 187.581 90.7363 187.572 90.7133 187.572V187.572Z" fill="white"/>
<path d="M44.4067 179.447C48.5728 180.846 52.5651 182.708 56.3067 184.998C60.1889 187.44 63.5556 190.605 66.22 194.317C71.826 202.043 76.1182 210.624 78.9267 219.721C80.493 224.758 81.4596 229.958 81.8067 235.217C81.7994 235.251 81.7805 235.282 81.7532 235.304C81.7259 235.326 81.6918 235.338 81.6567 235.338C81.6215 235.338 81.5875 235.326 81.5602 235.304C81.5328 235.282 81.514 235.251 81.5067 235.217C80.3299 226.099 77.7159 217.22 73.76 208.903C69.8733 200.752 64.9733 192.08 57.48 186.681C53.4 183.744 48.8134 181.817 44.24 179.784C44 179.705 44.1667 179.368 44.4067 179.447Z" fill="#EBEBEB"/>
<path d="M75.94 213.906C73.0437 211.297 69.8669 209.011 66.4667 207.088C61.1733 204.178 56.8733 202.264 55.56 199.723C54.2467 197.182 58.3333 193.882 58.3333 193.882C58.3333 193.882 52.9333 196.522 50.6933 194.575C48.4533 192.628 43.7467 179.164 43.7467 179.164C43.7467 179.164 56.22 183.553 64 192.456C71.78 201.359 75.94 213.906 75.94 213.906Z" fill="#EBEBEB"/>
<path d="M65.5867 201.511C64.3603 201.427 63.129 201.577 61.96 201.953C61.96 201.953 61.96 202.013 61.96 202.006C63.1526 201.804 64.3575 201.68 65.5667 201.637C65.6533 201.637 65.6733 201.518 65.5867 201.511Z" fill="white"/>
<path d="M54.7067 187.387C54.1472 187.342 53.5842 187.373 53.0333 187.48C52.9733 187.48 52.9933 187.585 53.0333 187.579C53.5867 187.519 54.1267 187.539 54.6733 187.526C54.6903 187.526 54.707 187.521 54.7205 187.511C54.7341 187.501 54.7436 187.486 54.7476 187.47C54.7515 187.454 54.7496 187.436 54.7421 187.421C54.7347 187.406 54.7221 187.394 54.7067 187.387V187.387Z" fill="white"/>
<path d="M92.0267 252.239H63.8733L67.8867 223.126L68.9133 215.662H86.9867L88.0133 223.126L92.0267 252.239Z" fill="#DBDBDB"/>
<path d="M88.0133 223.126H67.8867L68.9133 215.662H86.9867L88.0133 223.126Z" fill="#C7C7C7"/>
<path d="M89.5667 213.074H66.3267V219.397H89.5667V213.074Z" fill="#DBDBDB"/>
<path d="M45.9733 252.239L96.6467 252.08L147.32 252.021L248.667 251.909L350.013 252.021L400.687 252.08L451.36 252.239L400.687 252.404L350.013 252.457L248.667 252.569L147.32 252.457L96.6467 252.397L45.9733 252.239Z" fill="#263238"/>
<path d="M250 301.429C355.575 301.429 441.16 292.144 441.16 280.691C441.16 269.238 355.575 259.954 250 259.954C144.425 259.954 58.84 269.238 58.84 280.691C58.84 292.144 144.425 301.429 250 301.429Z" fill="#EBEBEB"/>
<path d="M205.5 277.259C203.947 277.781 159.407 277.919 157.7 276.877C157.033 276.481 156.653 270.059 156.367 262.284C156.307 260.608 156.26 258.872 156.22 257.116L152.667 233.594L182.447 233.402L185.253 256.931L185.14 262.106C185.14 262.106 202.22 269.597 203.967 270.956C205.713 272.316 207.053 276.738 205.5 277.259Z" fill="#EB9481"/>
<path d="M205.5 277.259C203.947 277.781 159.407 277.919 157.7 276.877C156.913 276.388 156.487 267.01 156.247 257.116L185.22 256.931L185.107 262.106C185.107 262.106 202.187 269.597 203.933 270.956C205.68 272.316 207.053 276.738 205.5 277.259Z" fill="white"/>
<path d="M205.5 277.259C203.947 277.781 159.407 277.919 157.7 276.877C157.033 276.481 156.653 270.059 156.367 262.284L185.08 262.106C185.08 262.106 202.16 269.597 203.907 270.956C205.653 272.316 207.053 276.738 205.5 277.259Z" fill="#A6A6A6"/>
<path d="M204.853 275.497C197.387 275.339 167.253 275.411 159.86 275.821C159.8 275.821 159.8 275.86 159.86 275.867C167.26 276.177 197.393 275.867 204.853 275.616C205.013 275.609 205.013 275.497 204.853 275.497Z" fill="#263238"/>
<path d="M201.06 269.379C200.23 269.361 199.405 269.513 198.637 269.827C197.869 270.14 197.176 270.608 196.6 271.201C195.551 272.258 194.958 273.678 194.947 275.161C194.947 275.207 195.027 275.207 195.033 275.161C195.281 273.7 195.999 272.359 197.081 271.336C198.162 270.313 199.549 269.664 201.033 269.485C201.047 269.488 201.062 269.486 201.075 269.479C201.087 269.471 201.096 269.459 201.1 269.445C201.104 269.431 201.101 269.416 201.094 269.404C201.086 269.391 201.074 269.383 201.06 269.379V269.379Z" fill="#263238"/>
<path d="M188 262.832C185.013 262.799 181.553 263.855 179.7 266.284C179.633 266.376 179.767 266.475 179.853 266.429C182.463 265.065 185.212 263.981 188.053 263.195C188.097 263.183 188.135 263.156 188.16 263.118C188.185 263.08 188.195 263.035 188.189 262.99C188.182 262.945 188.159 262.905 188.125 262.875C188.09 262.846 188.046 262.831 188 262.832V262.832Z" fill="#263238"/>
<path d="M190.32 263.71C187.327 263.71 183.867 264.739 182.02 267.161C181.947 267.26 182.08 267.359 182.173 267.313C184.779 265.945 187.526 264.858 190.367 264.073C190.41 264.061 190.448 264.034 190.473 263.997C190.498 263.96 190.508 263.915 190.502 263.871C190.497 263.827 190.475 263.786 190.442 263.757C190.408 263.727 190.365 263.71 190.32 263.71V263.71Z" fill="#263238"/>
<path d="M192.627 264.594C189.64 264.594 186.18 265.617 184.327 268.046C184.26 268.138 184.393 268.237 184.48 268.191C187.089 266.827 189.838 265.743 192.68 264.957C192.724 264.945 192.762 264.918 192.787 264.88C192.812 264.842 192.822 264.797 192.815 264.752C192.809 264.708 192.786 264.667 192.751 264.638C192.717 264.609 192.672 264.593 192.627 264.594Z" fill="#263238"/>
<path d="M194.94 265.478C191.947 265.445 188.487 266.501 186.64 268.93C186.567 269.023 186.707 269.122 186.793 269.075C189.402 267.711 192.151 266.627 194.993 265.841C195.037 265.83 195.075 265.802 195.1 265.764C195.125 265.727 195.135 265.681 195.129 265.637C195.122 265.592 195.099 265.551 195.065 265.522C195.03 265.493 194.986 265.477 194.94 265.478V265.478Z" fill="#263238"/>
<path d="M161.74 268.792C158.407 268.792 158.407 273.973 161.74 273.953C165.073 273.933 165.1 268.772 161.74 268.792Z" fill="#263238"/>
<path d="M191.207 254.925C189.693 253.684 187.787 254.925 186.86 256.199C185.317 258.45 184.398 261.063 184.193 263.776C184.193 263.835 184.24 263.861 184.287 263.861C184.298 263.917 184.324 263.969 184.36 264.014C184.397 264.058 184.443 264.093 184.496 264.115C184.549 264.138 184.607 264.148 184.664 264.144C184.722 264.14 184.777 264.122 184.827 264.092C186.947 262.634 189.4 261.327 191.007 259.261C191.92 258.06 192.667 256.08 191.207 254.925ZM187.567 261.221C186.54 261.967 185.48 262.66 184.48 263.446C185.013 261.967 185.473 260.476 186.153 259.05C186.468 258.366 186.828 257.705 187.233 257.07C187.9 256.087 190.807 253.605 191.113 256.819C191.287 258.581 188.787 260.337 187.567 261.221Z" fill="#263238"/>
<path d="M176.753 264.898C179.353 265.28 182.04 264.541 184.593 264.139C184.649 264.124 184.7 264.097 184.743 264.06C184.786 264.022 184.82 263.975 184.841 263.923C184.862 263.87 184.871 263.813 184.866 263.757C184.861 263.7 184.843 263.646 184.813 263.597C184.823 263.59 184.831 263.581 184.836 263.57C184.842 263.559 184.844 263.547 184.844 263.535C184.844 263.523 184.842 263.511 184.836 263.5C184.831 263.489 184.823 263.479 184.813 263.472C182.762 261.661 180.265 260.416 177.573 259.862C176 259.565 173.773 259.994 173.573 261.928C173.333 263.749 175.233 264.66 176.753 264.898ZM174.94 263.221C172.94 260.687 176.76 260.469 177.907 260.733C178.651 260.917 179.381 261.151 180.093 261.433C181.551 262.031 182.978 262.703 184.367 263.446C183.1 263.571 181.853 263.795 180.593 263.967C179.087 264.165 176.06 264.614 174.94 263.221V263.221Z" fill="#263238"/>
<path d="M108.88 124.872C108.88 124.872 143.46 183.11 144.387 187.202C145.807 193.486 153.333 255.532 153.333 255.532L189.333 254.872C189.333 254.872 183.133 200.165 177.26 182.14C173.033 169.158 142.513 126.1 142.513 126.1L108.88 124.872Z" fill="#37474F"/>
<path d="M186.06 249.434C180.893 249.394 162.58 249.19 155.7 249.823C155.647 249.823 155.653 249.916 155.7 249.922C158.067 250.259 180.887 249.737 186.053 249.572C186.064 249.576 186.076 249.578 186.087 249.576C186.098 249.575 186.109 249.571 186.119 249.564C186.129 249.558 186.136 249.55 186.142 249.54C186.148 249.53 186.151 249.519 186.152 249.508C186.152 249.496 186.15 249.485 186.145 249.474C186.141 249.464 186.133 249.455 186.125 249.448C186.116 249.441 186.105 249.436 186.094 249.433C186.083 249.431 186.071 249.431 186.06 249.434V249.434Z" fill="#263238"/>
<path d="M114.78 130.218C117.047 133.736 119.447 137.181 121.753 140.672C124.06 144.164 126.38 147.655 128.667 151.14C133.227 158.18 137.671 165.266 142 172.399C144.113 175.705 145.92 179.193 147.4 182.82C148.751 186.448 149.766 190.19 150.433 194C151.14 197.822 151.607 201.683 152.04 205.544C152.484 209.649 152.949 213.756 153.433 217.866C154.38 226.274 155.329 234.683 156.28 243.091C156.393 244.121 156.507 245.15 156.613 246.187C156.613 246.338 156.353 246.365 156.333 246.187C155.273 237.838 154.393 229.456 153.433 221.107C152.953 216.94 152.476 212.775 152 208.613C151.553 204.739 151.127 200.858 150.52 197.01C149.963 193.212 149.116 189.461 147.987 185.79C146.742 181.989 145.074 178.336 143.013 174.9C138.847 167.779 134.433 160.783 130.02 153.78C125.607 146.777 121.073 139.715 116.42 132.799C115.847 131.947 115.267 131.096 114.667 130.258C114.62 130.211 114.74 130.152 114.78 130.218Z" fill="#263238"/>
<path d="M120.213 280.691C118.573 280.592 76.2133 263.604 75.04 261.994C74.9877 261.899 74.9646 261.791 74.9733 261.683C74.9733 260.238 77.9133 255.196 80.3667 248.569C80.52 248.147 81.6133 246.18 83.1267 243.533C87.3333 236.28 94.6667 223.786 94.6667 223.786L122.353 234.676L109.1 254.311L107.04 259.063C107.04 259.063 120.033 272.362 121.127 274.243C122.22 276.124 121.847 280.784 120.213 280.691Z" fill="#EB9481"/>
<path d="M120.213 280.691C118.573 280.592 76.2133 263.604 75.04 261.994C74.9877 261.899 74.9646 261.791 74.9733 261.683C74.9733 260.238 77.9133 255.196 80.3667 248.569C80.52 248.147 81.6133 246.18 83.1267 243.533L109.127 254.311L107.067 259.063C107.067 259.063 120.06 272.362 121.153 274.243C122.247 276.124 121.847 280.784 120.213 280.691Z" fill="white"/>
<path d="M120.213 280.691C118.573 280.592 76.2133 263.604 75.04 261.994C74.5867 261.38 76.48 255.658 80.3733 248.569L107.04 259.07C107.04 259.07 120.033 272.356 121.133 274.25C122.233 276.144 121.847 280.784 120.213 280.691Z" fill="#A6A6A6"/>
<path d="M120.28 278.817C113.42 275.9 85.46 264.772 78.4533 262.409C78.3933 262.409 78.38 262.409 78.4533 262.449C85.1933 265.485 113.24 276.388 120.253 278.949C120.387 278.982 120.427 278.876 120.28 278.817Z" fill="#263238"/>
<path d="M119.08 271.735C118.319 271.404 117.498 271.234 116.667 271.234C115.836 271.234 115.014 271.404 114.253 271.735C112.886 272.328 111.802 273.42 111.227 274.784C111.227 274.824 111.287 274.857 111.307 274.817C112.093 273.552 113.272 272.573 114.667 272.027C116.062 271.48 117.599 271.397 119.047 271.788C119.058 271.785 119.067 271.778 119.074 271.768C119.08 271.758 119.082 271.747 119.08 271.735V271.735Z" fill="#263238"/>
<path d="M109.46 260.819C106.707 259.677 103.093 259.373 100.46 260.938C100.36 260.997 100.46 261.136 100.547 261.129C103.482 260.834 106.441 260.85 109.373 261.175C109.418 261.18 109.464 261.169 109.501 261.143C109.538 261.117 109.564 261.078 109.575 261.035C109.586 260.991 109.58 260.945 109.559 260.905C109.537 260.866 109.502 260.835 109.46 260.819Z" fill="#263238"/>
<path d="M111.267 262.495C108.513 261.353 104.9 261.05 102.267 262.614C102.167 262.673 102.267 262.812 102.353 262.805C105.289 262.507 108.248 262.523 111.18 262.852C111.225 262.857 111.27 262.845 111.308 262.819C111.345 262.793 111.371 262.755 111.382 262.711C111.392 262.668 111.386 262.621 111.365 262.582C111.344 262.542 111.309 262.511 111.267 262.495Z" fill="#263238"/>
<path d="M113.08 264.172C110.32 263.03 106.707 262.726 104.08 264.29C103.973 264.35 104.08 264.488 104.16 264.482C107.095 264.184 110.055 264.199 112.987 264.528C113.033 264.536 113.08 264.526 113.119 264.501C113.158 264.476 113.187 264.437 113.198 264.392C113.21 264.347 113.204 264.3 113.182 264.259C113.161 264.218 113.124 264.187 113.08 264.172V264.172Z" fill="#263238"/>
<path d="M114.887 265.848C112.127 264.706 108.52 264.403 105.887 265.96C105.78 266.026 105.887 266.165 105.967 266.158C108.902 265.86 111.861 265.876 114.793 266.204C114.839 266.212 114.887 266.202 114.926 266.177C114.965 266.152 114.993 266.113 115.005 266.069C115.017 266.024 115.011 265.976 114.989 265.936C114.967 265.895 114.931 265.864 114.887 265.848V265.848Z" fill="#263238"/>
<path d="M82.8533 256.588C79.74 255.361 77.8067 260.159 80.9333 261.386C84.06 262.614 86 257.816 82.8533 256.588Z" fill="#263238"/>
<path d="M115.427 254.681C114.487 252.971 112.267 253.394 110.913 254.245C108.634 255.757 106.795 257.835 105.58 260.271C105.575 260.282 105.572 260.293 105.572 260.305C105.572 260.317 105.574 260.329 105.579 260.34C105.584 260.351 105.592 260.36 105.601 260.368C105.611 260.375 105.622 260.38 105.633 260.383C105.633 260.601 105.78 260.858 106.04 260.806C108.567 260.231 111.333 259.934 113.6 258.614C114.9 257.849 116.313 256.298 115.427 254.681ZM109.66 259.162C108.427 259.472 107.187 259.723 105.967 260.08C106.976 258.876 108.046 257.724 109.173 256.628C109.728 256.105 110.319 255.62 110.94 255.176C111.907 254.516 115.56 253.295 114.627 256.39C114.113 258.1 111.133 258.793 109.66 259.162V259.162Z" fill="#263238"/>
<path d="M98.2467 258.555C100.513 259.875 103.28 260.185 105.8 260.766C106.06 260.825 106.233 260.568 106.213 260.344C106.226 260.342 106.238 260.338 106.248 260.331C106.258 260.323 106.266 260.314 106.272 260.302C106.277 260.291 106.28 260.279 106.279 260.266C106.278 260.254 106.274 260.242 106.267 260.231C105.054 257.791 103.215 255.708 100.933 254.192C99.6 253.334 97.3667 252.905 96.42 254.608C95.4733 256.311 96.92 257.783 98.2467 258.555ZM97.2067 256.324C96.28 253.229 99.9267 254.456 100.893 255.123C101.514 255.567 102.102 256.055 102.653 256.582C103.778 257.68 104.846 258.834 105.853 260.04C104.633 259.684 103.393 259.426 102.16 259.116C100.667 258.72 97.7133 258.06 97.2067 256.324Z" fill="#263238"/>
<path d="M111.253 253.216L80.26 240.827C80.26 240.827 118.687 184.892 118.967 180.728C119.22 177.045 102.34 144.956 101.68 135.604C100.96 125.506 105.867 117.698 111.267 112.847L143.233 126.304C143.233 126.304 139.86 131.644 134.567 134.62C134.567 134.62 150.96 171.712 150.027 183.117C149.093 194.522 111.253 253.216 111.253 253.216Z" fill="#37474F"/>
<path d="M112.627 247.381C108.147 245.474 109.46 245.956 104.953 244.081C102.753 243.17 88.2867 237.211 86.06 236.716C86.0133 236.716 85.98 236.782 86.0267 236.808C87.9533 237.976 102.54 243.685 104.76 244.556C109.3 246.325 108.013 245.771 112.573 247.487C112.58 247.496 112.589 247.503 112.6 247.507C112.61 247.512 112.621 247.514 112.633 247.513C112.644 247.512 112.655 247.508 112.664 247.502C112.674 247.495 112.681 247.487 112.686 247.477C112.691 247.467 112.694 247.455 112.693 247.444C112.693 247.433 112.689 247.422 112.683 247.412C112.677 247.403 112.669 247.395 112.659 247.39C112.649 247.384 112.638 247.381 112.627 247.381V247.381Z" fill="#263238"/>
<path d="M139.807 133.94C136.479 134.708 133.222 135.755 130.073 137.069C130.061 137.073 130.049 137.08 130.039 137.089C130.029 137.098 130.021 137.108 130.015 137.12C130.009 137.132 130.005 137.145 130.005 137.158C130.004 137.172 130.006 137.185 130.01 137.197C130.014 137.21 130.021 137.222 130.03 137.232C130.039 137.242 130.05 137.25 130.062 137.255C130.074 137.261 130.087 137.265 130.1 137.266C130.114 137.266 130.127 137.265 130.14 137.26C133.407 136.316 136.727 135.432 139.94 134.317C140.187 134.231 140.06 133.888 139.807 133.94Z" fill="#263238"/>
<path d="M136 132.66C135.689 133.207 135.415 133.774 135.18 134.356C134.95 134.798 134.807 135.28 134.76 135.775C134.76 135.874 134.893 135.894 134.953 135.835C135.288 135.439 135.558 134.993 135.753 134.515C136.027 133.993 136.307 133.478 136.567 132.944C136.747 132.554 136.207 132.304 136 132.66Z" fill="#263238"/>
<path d="M136.4 129.664C136.6 129.175 136.793 128.693 137 128.205C137.207 127.717 137.467 127.215 137.667 126.7C137.667 126.621 137.827 126.7 137.793 126.76C137.593 127.248 137.467 127.763 137.313 128.264C137.16 128.766 136.987 129.268 136.82 129.769C136.507 130.7 136.153 131.624 135.72 132.528C136.245 132.554 136.768 132.464 137.253 132.264C137.749 131.95 138.129 131.488 138.34 130.944C138.62 130.403 138.88 129.848 139.167 129.307C139.52 128.722 139.816 128.106 140.053 127.466C140.053 127.387 140.213 127.466 140.18 127.525C139.745 128.878 139.176 130.185 138.48 131.426C138.18 131.908 137.947 132.416 137.4 132.601C136.808 132.764 136.189 132.807 135.58 132.726C135.5 132.726 135.407 132.726 135.433 132.607C135.706 131.611 136.029 130.628 136.4 129.664V129.664Z" fill="#263238"/>
<path d="M135.04 135.828C136.18 138.211 137.18 140.587 138.24 142.963C139.3 145.339 140.24 147.635 141.193 149.998C143.1 154.763 144.807 159.621 146.307 164.518C147.047 166.947 147.733 169.396 148.347 171.864C149.022 174.325 149.517 176.83 149.827 179.362C150.094 181.889 149.868 184.443 149.16 186.886C148.425 189.3 147.481 191.647 146.34 193.901C145.64 195.327 145.407 195.136 145.74 194.416C146.693 192.37 149.193 186.173 149.013 180.965C148.867 178.472 148.479 175.999 147.853 173.58C147.271 171.085 146.616 168.61 145.887 166.155C144.467 161.311 142.78 156.565 141.047 151.826C140.073 149.186 139.047 146.546 138.047 143.906C137.047 141.266 136.047 138.838 134.927 135.92C134.893 135.802 135.007 135.755 135.04 135.828Z" fill="#263238"/>
<path d="M111.513 127.954C112.067 127.75 112.847 128.086 113.407 128.179C114.132 128.3 114.865 128.373 115.6 128.396C116.327 128.422 117.056 128.398 117.78 128.324C118.509 128.305 119.224 128.118 119.867 127.776C120.921 127.015 121.825 126.069 122.533 124.984C123.377 123.876 124.074 122.665 124.607 121.381C124.607 121.301 124.747 121.381 124.72 121.433C124.487 122.166 124.313 122.905 124.053 123.625C123.766 124.301 123.423 124.952 123.027 125.572C122.385 126.819 121.436 127.886 120.267 128.674C118.98 129.4 117.327 129.334 115.893 129.274C115.062 129.226 114.235 129.118 113.42 128.951C112.833 128.825 111.847 128.733 111.473 128.225C111.456 128.205 111.443 128.182 111.435 128.157C111.428 128.132 111.426 128.106 111.429 128.08C111.433 128.054 111.443 128.03 111.457 128.008C111.472 127.986 111.491 127.968 111.513 127.954V127.954Z" fill="#263238"/>
<path d="M89.1067 234.96C94.2 227.322 99.2 219.622 104.107 211.86C109.013 204.098 113.853 196.277 118.627 188.397C119.767 186.516 121.08 184.642 121.813 182.556C122.613 180.292 122.16 178.094 121.44 175.877C120.08 171.831 118.491 167.865 116.68 163.997C114.893 160.096 112.967 156.262 111.073 152.414C109.18 148.566 107.2 144.764 105.74 140.752C104.407 136.917 103.867 132.944 104.907 128.971C105.947 124.997 108.187 121.486 110.527 118.18C111.14 117.308 111.773 116.444 112.393 115.54C112.44 115.474 112.54 115.54 112.493 115.619C109.913 119.064 107.4 122.714 105.887 126.76C105.113 128.754 104.681 130.862 104.607 132.997C104.594 135.164 104.934 137.319 105.613 139.379C106.867 143.392 108.847 147.187 110.693 150.962C112.54 154.737 114.513 158.644 116.333 162.532C118.211 166.444 119.88 170.451 121.333 174.537C121.953 176.352 122.667 178.253 122.613 180.2C122.567 182.332 121.54 184.252 120.473 186.047C115.807 193.868 111.027 201.597 106.16 209.279C101.293 216.962 96.2867 224.644 91.22 232.247L89.3 235.118C89.2 235.237 89.0267 235.099 89.1067 234.96Z" fill="#263238"/>
<path d="M145.007 90.7302C147.893 97.0002 162.473 105.64 169.3 106.57C174.207 107.23 189.127 107.468 194.24 106.696C200.24 105.785 195.653 89.7798 192.113 90.1956C182.38 91.3176 174.113 92.5716 171.513 92.5716C168.34 92.5716 151.173 87.12 149.107 86.3478C144.04 84.48 143.373 87.1728 145.007 90.7302Z" fill="#EB9481"/>
<path d="M145.1 92.4C148.753 97.7526 160.893 106.504 160.893 106.504L162.58 102.808L168.16 90.585C168.16 90.585 157.007 87.12 149.667 85.536C148.803 85.3413 147.924 85.2177 147.04 85.1664C142.353 84.9156 141.947 87.78 145.1 92.4Z" fill="#FFC727"/>
<path d="M145.1 92.4C148.753 97.7526 160.893 106.504 160.893 106.504L162.58 102.808C158.053 97.6008 151.06 89.7138 147.04 85.1796C142.353 84.9156 141.947 87.78 145.1 92.4Z" fill="#263238"/>
<path d="M158.707 104.023C159.633 101.772 163.753 92.7102 164.78 90.8226C164.847 90.6906 164.953 90.7038 164.893 90.8226C163.106 95.329 161.072 99.7356 158.8 104.023C158.773 104.102 158.667 104.075 158.707 104.023Z" fill="#263238"/>
<path d="M190.327 90.3606C196.247 89.595 203.573 88.2816 209.78 90.8886C210.477 91.1593 211.062 91.6545 211.44 92.2944C214.24 93.4164 214.547 95.0598 214.547 95.0598C216.833 96.8946 216.913 98.6238 216.913 98.6238C216.913 98.6238 220.193 99.9438 219.693 102.069C219.147 104.419 214.653 102.069 211.387 102.26C203.887 102.722 193.387 105.448 191.22 105.791L190.327 90.3606Z" fill="#EB9481"/>
<path d="M203.187 97.2774C205.38 97.1289 207.58 97.1289 209.773 97.2774C212.162 97.574 214.524 98.0484 216.84 98.6964C216.855 98.7016 216.872 98.7008 216.886 98.694C216.9 98.6872 216.911 98.675 216.917 98.6601C216.922 98.6452 216.921 98.6289 216.914 98.6146C216.907 98.6004 216.895 98.5895 216.88 98.5842C212.529 96.894 207.792 96.4192 203.187 97.2114C203.08 97.1982 203.08 97.284 203.187 97.2774Z" fill="#263238"/>
<path d="M201.793 90.42C205.453 90.6048 207.74 91.1856 211.42 92.2812V92.2416C207.367 90.5652 205.707 90.4068 201.773 90.2616C201.647 90.3144 201.653 90.42 201.793 90.42Z" fill="#263238"/>
<path d="M202.387 103.382C201.433 103.825 201.667 104.32 203.487 104.735C205.307 105.151 212.873 105.277 212.607 107.89C212.34 110.504 201.667 110.174 198.687 109.25C195.707 108.326 191.22 105.791 191.22 105.791C193.333 105.442 198.293 104.115 202.387 103.382Z" fill="#EB9481"/>
<path d="M152.933 100.723C152.887 101.851 152.78 103 152.62 104.141C152.62 104.095 152.62 104.056 152.667 104.016C152.887 103.422 153.107 102.815 153.373 102.241C153.373 102.241 153.44 102.241 153.433 102.241C153.305 102.87 153.113 103.484 152.86 104.075C152.74 104.359 152.627 104.636 152.5 104.914C152.42 105.422 152.327 105.923 152.227 106.425C152.027 107.369 151.127 111.382 150.893 112.061C150.853 112.2 150.68 112.167 150.693 112.009C150.74 111.269 151.493 107.092 151.647 106.141C151.944 104.306 152.343 102.488 152.84 100.696C152.873 100.663 152.94 100.69 152.933 100.723Z" fill="#263238"/>
<path d="M146 130.733C144.22 131.637 141.927 133.043 131.593 131.03C130.927 130.898 130.3 130.739 129.647 130.548C119.96 127.67 108.313 116.391 107.68 115.592C107.68 115.592 123.073 90.8886 142.76 83.1204C145.193 82.1634 149.22 84.0114 151.427 86.3148C152.22 87.1398 153.947 93.2052 153.287 98.1156C152.627 103.026 147.773 129.829 146 130.733Z" fill="#FFC727"/>
<path d="M144.613 97.8912C144.688 98.9351 144.54 99.9828 144.18 100.967C144.095 99.9225 144.243 98.8727 144.613 97.8912V97.8912Z" fill="white"/>
<path d="M137.9 114.715C137.942 115.234 137.925 115.757 137.847 116.272C137.782 116.792 137.655 117.301 137.467 117.79C137.421 117.269 137.439 116.743 137.52 116.226C137.588 115.71 137.716 115.202 137.9 114.715V114.715Z" fill="white"/>
<path d="M126.493 101.996C126.568 103.043 126.421 104.093 126.06 105.079C125.976 104.032 126.124 102.98 126.493 101.996V101.996Z" fill="white"/>
<path d="M149.007 113.857C149.049 114.378 149.031 114.903 148.953 115.421C148.889 115.94 148.762 116.45 148.573 116.939C148.527 116.417 148.545 115.892 148.627 115.375C148.694 114.856 148.822 114.346 149.007 113.857V113.857Z" fill="white"/>
<path d="M134.36 99.8184C134.885 99.7742 135.412 99.7897 135.933 99.8646C136.458 99.9304 136.973 100.059 137.467 100.247C136.412 100.322 135.354 100.176 134.36 99.8184V99.8184Z" fill="white"/>
<path d="M121.413 111.969C122.468 111.895 123.526 112.042 124.52 112.398C123.465 112.482 122.405 112.335 121.413 111.969V111.969Z" fill="white"/>
<path d="M136.667 125.123C137.721 125.048 138.78 125.194 139.773 125.552C138.719 125.634 137.658 125.488 136.667 125.123V125.123Z" fill="white"/>
<path d="M117.42 120.344C118.474 120.271 119.533 120.417 120.527 120.773C119.472 120.856 118.412 120.709 117.42 120.344V120.344Z" fill="white"/>
<path d="M144.513 86.064C145.568 85.9904 146.626 86.1366 147.62 86.493C146.566 86.5666 145.507 86.4205 144.513 86.064V86.064Z" fill="white"/>
<path d="M140.747 90.2748C140.41 90.6759 140.025 91.0349 139.6 91.344C139.187 91.6602 138.74 91.9303 138.267 92.1492C138.601 91.7506 138.982 91.3919 139.4 91.08C139.817 90.7625 140.269 90.4924 140.747 90.2748V90.2748Z" fill="white"/>
<path d="M120.22 102.241C119.879 102.638 119.492 102.995 119.067 103.303C118.658 103.625 118.21 103.896 117.733 104.108C118.076 103.712 118.463 103.356 118.887 103.046C119.297 102.725 119.744 102.455 120.22 102.241V102.241Z" fill="white"/>
<path d="M145.853 107.639C145.512 108.039 145.125 108.398 144.7 108.709C144.29 109.029 143.842 109.3 143.367 109.514C143.708 109.114 144.095 108.755 144.52 108.445C144.932 108.127 145.379 107.857 145.853 107.639Z" fill="white"/>
<path d="M129.253 117.988C128.912 118.388 128.525 118.747 128.1 119.057C127.689 119.377 127.242 119.648 126.767 119.863C127.108 119.463 127.495 119.104 127.92 118.793C128.332 118.476 128.779 118.206 129.253 117.988Z" fill="white"/>
<path d="M152.213 93.5022C151.872 93.9019 151.485 94.2607 151.06 94.5714C150.647 94.8877 150.2 95.1577 149.727 95.3766C150.068 94.9769 150.455 94.6181 150.88 94.3074C151.291 93.9875 151.738 93.7172 152.213 93.5022V93.5022Z" fill="white"/>
<path d="M151.867 105.494C151.463 105.157 151.1 104.774 150.787 104.353C150.462 103.947 150.189 103.504 149.973 103.033C150.378 103.366 150.741 103.747 151.053 104.168C151.372 104.58 151.645 105.025 151.867 105.494V105.494Z" fill="white"/>
<path d="M114.867 113.758C114.463 113.42 114.1 113.037 113.787 112.616C113.466 112.208 113.193 111.765 112.973 111.296C113.377 111.633 113.74 112.017 114.053 112.438C114.376 112.844 114.65 113.287 114.867 113.758V113.758Z" fill="white"/>
<path d="M147.367 123.585C146.962 123.251 146.599 122.87 146.287 122.45C145.967 122.041 145.694 121.598 145.473 121.13C145.877 121.467 146.24 121.851 146.553 122.272C146.875 122.677 147.148 123.117 147.367 123.585Z" fill="white"/>
<path d="M131.08 95.568C130.676 95.2327 130.314 94.8517 130 94.4328C129.682 94.0229 129.409 93.5804 129.187 93.1128C129.592 93.4464 129.954 93.8276 130.267 94.248C130.585 94.6579 130.857 95.1004 131.08 95.568V95.568Z" fill="white"/>
<path d="M131.367 129.182C130.963 128.844 130.6 128.461 130.287 128.04C129.967 127.631 129.694 127.189 129.473 126.72C129.878 127.054 130.241 127.435 130.553 127.855C130.874 128.266 131.147 128.711 131.367 129.182V129.182Z" fill="white"/>
<path d="M134.133 109.355C133.733 109.016 133.373 108.633 133.06 108.214C132.735 107.809 132.461 107.365 132.247 106.894C132.648 107.231 133.009 107.615 133.32 108.035C133.644 108.441 133.917 108.884 134.133 109.355V109.355Z" fill="white"/>
<path d="M147.82 92.895C145.307 92.433 142.947 87.2916 142.647 83.8332C142.647 83.5956 143.82 81.7146 145.16 79.3584C145.973 77.9262 146.833 76.3092 147.52 74.778C147.66 74.4678 148.48 75.5172 148.48 75.5172L150.267 76.8372L156.167 81.3186C154.762 82.9876 153.568 84.8207 152.613 86.7768C152.519 86.9888 152.448 87.21 152.4 87.4368C152.397 87.4741 152.397 87.5116 152.4 87.549C152.033 88.8558 150.24 93.3372 147.82 92.895Z" fill="#EB9481"/>
<path d="M152.4 87.4698C152.397 87.5072 152.397 87.5446 152.4 87.582C152.05 87.4803 151.709 87.3501 151.38 87.1926C144.92 84.1962 147.767 75.6294 147.767 75.6294L150.3 76.8702L156.2 81.3516C154.795 83.0207 153.602 84.8537 152.647 86.8098C152.541 87.0205 152.458 87.2417 152.4 87.4698V87.4698Z" fill="#263238"/>
<path d="M162.947 63.0828C162.947 63.0828 165.9 64.9374 165.913 68.2374C165.927 71.5374 164.58 74.7648 164.3 74.8836C164.02 75.0024 162.947 63.0828 162.947 63.0828Z" fill="#263238"/>
<path d="M148.293 64.7988C146.52 68.2638 146.613 79.1868 148.827 81.9984C152.04 86.0772 158.227 87.483 161.967 83.4504C165.587 79.5432 165.213 65.3136 162.633 62.6604C158.88 58.74 150.92 59.6706 148.293 64.7988Z" fill="#EB9481"/>
<path d="M157.707 73.5438C157.707 73.5438 157.647 73.5834 157.653 73.6098C157.693 74.3556 157.613 75.2136 156.94 75.4776C156.94 75.4776 156.94 75.5238 156.94 75.5172C157.773 75.3852 157.867 74.2434 157.707 73.5438Z" fill="#263238"/>
<path d="M157.02 72.7848C155.807 72.7188 155.767 75.1212 156.893 75.1806C158.02 75.24 158.033 72.8376 157.02 72.7848Z" fill="#263238"/>
<path d="M161.82 73.5174C161.82 73.5174 161.88 73.5174 161.88 73.5834C161.84 74.3292 161.927 75.1872 162.607 75.4446C162.607 75.4446 162.607 75.4908 162.607 75.4842C161.767 75.3588 161.667 74.217 161.82 73.5174Z" fill="#263238"/>
<path d="M162.507 72.7518C163.713 72.6792 163.773 75.0816 162.653 75.1476C161.533 75.2136 161.493 72.8112 162.507 72.7518Z" fill="#263238"/>
<path d="M156.26 70.9566C156.579 70.8669 156.892 70.7611 157.2 70.6398C157.55 70.5771 157.869 70.4006 158.107 70.1382C158.164 70.0421 158.188 69.93 158.175 69.819C158.162 69.708 158.112 69.6045 158.033 69.5244C157.853 69.3886 157.639 69.303 157.414 69.2763C157.189 69.2496 156.961 69.2828 156.753 69.3726C156.303 69.4918 155.914 69.7716 155.66 70.158C155.609 70.2499 155.586 70.3543 155.594 70.4588C155.601 70.5633 155.638 70.6635 155.702 70.7476C155.765 70.8316 155.851 70.896 155.95 70.933C156.049 70.9701 156.156 70.9783 156.26 70.9566V70.9566Z" fill="#263238"/>
<path d="M163.333 72.0192C163.009 71.9474 162.689 71.8593 162.373 71.7552C162.022 71.7092 161.696 71.549 161.447 71.2998C161.382 71.208 161.351 71.0974 161.359 70.986C161.366 70.8746 161.411 70.7688 161.487 70.686C161.659 70.5405 161.867 70.4434 162.09 70.4051C162.313 70.3668 162.542 70.3886 162.753 70.4682C163.209 70.5617 163.614 70.8207 163.887 71.1942C163.944 71.2826 163.974 71.3855 163.973 71.4905C163.972 71.5954 163.94 71.6978 163.882 71.7852C163.823 71.8726 163.74 71.9413 163.643 71.9828C163.545 72.0244 163.438 72.037 163.333 72.0192V72.0192Z" fill="#263238"/>
<path d="M156 80.5992C156.18 80.7774 156.353 81.015 156.627 81.0414C156.907 81.0413 157.184 80.9828 157.44 80.8698C157.44 80.8698 157.487 80.8698 157.44 80.9094C157.331 81.0545 157.184 81.1674 157.015 81.236C156.845 81.3046 156.661 81.3263 156.48 81.2988C156.328 81.2577 156.191 81.1732 156.087 81.0559C155.982 80.9386 155.915 80.7936 155.893 80.6388C155.888 80.6248 155.889 80.6093 155.895 80.5957C155.901 80.5821 155.913 80.5715 155.927 80.5662C155.941 80.561 155.956 80.5615 155.97 80.5677C155.984 80.5739 155.995 80.5852 156 80.5992Z" fill="#263238"/>
<path d="M160.36 77.418C160.36 77.418 160.393 78.5268 160.36 79.0482C159.336 78.9405 158.301 78.9761 157.287 79.1538C157.047 79.2066 157.073 79.0152 157.347 78.8898C158.164 78.52 159.074 78.4005 159.96 78.5466C160.013 78.408 159.873 76.8306 159.96 76.8372C160.363 76.9155 160.754 77.0488 161.12 77.2332C161.12 74.91 160.747 72.6132 160.78 70.29C160.78 70.2108 160.907 70.1976 160.92 70.29C161.394 72.7476 161.617 75.2461 161.587 77.748C161.593 78.0318 160.56 77.5236 160.36 77.418Z" fill="#263238"/>
<path d="M158.86 78.6522C158.594 79.3442 158.101 79.9277 157.46 80.3088C156.453 80.7114 156.127 79.8072 157.14 78.9888C157.671 78.7229 158.266 78.6064 158.86 78.6522Z" fill="#263238"/>
<path d="M157.813 80.1042C157.707 80.19 157.588 80.259 157.46 80.3088C156.533 80.6784 156.167 79.9458 156.913 79.2066C157.42 79.2462 158 79.431 157.813 80.1042Z" fill="#FF99BA"/>
<path d="M147.787 74.1378C149.007 74.5074 150.407 70.8774 150.807 69.5178C151.153 68.2902 151.553 64.3896 151.613 64.119C151.673 63.8484 156.947 67.5708 160 66.6864C163.053 65.802 165.127 63.063 165.173 61.7892C165.22 60.5154 161.4 57.2814 158.1 57.1164C154.8 56.9514 150.327 61.0764 150.327 61.0764C150.867 60.4693 151.357 59.8205 151.793 59.136C151.74 58.9908 149.607 59.8356 149.213 61.3404C149.213 61.3404 149.64 59.4462 149.48 59.4132C149.32 59.3802 147.66 60.9972 148.033 62.2248C148.033 62.2248 146.113 63.8682 145.94 65.67C145.767 67.4718 146.353 73.7022 147.787 74.1378Z" fill="#263238"/>
<path d="M162.187 66C161.279 66.4874 160.301 66.8346 159.287 67.0296C158.149 67.1301 157.003 66.9486 155.953 66.5016C154.896 66.0972 153.914 65.5217 153.047 64.7988C152.28 64.1784 151.593 63.4194 150.773 62.865C150.567 62.7198 150.333 63.0168 150.46 63.2016C151.828 65.1146 153.782 66.5403 156.033 67.2672C157.079 67.6046 158.195 67.6677 159.272 67.4502C160.35 67.2327 161.352 66.7421 162.18 66.0264C162.18 66.0264 162.2 66 162.187 66Z" fill="#263238"/>
<path d="M149.06 73.8144C149.06 73.8144 147.167 70.0128 145.46 70.6266C143.753 71.2404 144.793 76.5006 146.547 77.4642C146.761 77.6017 147.002 77.6949 147.254 77.7382C147.506 77.7815 147.764 77.7739 148.013 77.716C148.262 77.6581 148.497 77.5509 148.703 77.4011C148.909 77.2512 149.083 77.0616 149.213 76.8438L149.06 73.8144Z" fill="#EB9481"/>
<path d="M145.8 72.1248C145.8 72.1248 145.76 72.1248 145.8 72.1776C147.013 72.8904 147.507 74.1576 147.8 75.4776C147.745 75.3378 147.66 75.2116 147.55 75.1077C147.441 75.0038 147.31 74.9246 147.167 74.8756C147.023 74.8267 146.871 74.8091 146.72 74.8242C146.57 74.8392 146.424 74.8865 146.293 74.9628C146.253 74.9628 146.293 75.0354 146.293 75.0354C146.532 74.9986 146.776 75.0361 146.992 75.1424C147.208 75.2488 147.386 75.4189 147.5 75.6294C147.691 75.9818 147.843 76.3535 147.953 76.7382C147.993 76.8636 148.213 76.8306 148.193 76.692C148.48 75.0486 147.547 72.5604 145.8 72.1248Z" fill="#263238"/>
<path d="M136.56 90.7896C135.227 98.2674 143.413 123.46 148.66 128.165C156.467 135.161 170.9 139.762 176.133 141.26C178.413 141.92 184.72 126.034 182.413 124.984C177.473 122.76 162.127 118.008 160.667 116.82C159.207 115.632 150.407 103.046 146.487 95.799C141.24 86.0442 137.22 87.0078 136.56 90.7896Z" fill="#EB9481"/>
<path d="M178.527 123.585C178.527 123.585 185.34 125.308 189.733 126.634C192.187 127.38 196.28 129.023 197.833 130.383C200.153 132.422 208.54 142.402 206.14 144.467C203.967 146.342 197.86 136.858 197.86 136.858C197.86 136.858 204.873 145.886 201.86 147.662C198.847 149.437 193.333 137.815 193.333 137.815C193.333 137.815 200.327 147.253 196.907 148.592C194.32 149.602 188.773 139.352 188.773 139.352C188.773 139.352 194.733 147.503 192.107 148.658C189.213 149.939 183.5 140.791 183.5 140.791C176.353 142.619 172.167 140.593 169.413 138.811C168.767 138.376 178.527 123.585 178.527 123.585Z" fill="#EB9481"/>
<path d="M195.633 133.577C196.5 134.607 197.38 135.65 198.147 136.752C198.913 137.854 199.64 138.989 200.3 140.158C201.194 141.669 201.91 143.276 202.433 144.949C201.287 142.045 198.6 138.052 197.833 136.95C197.067 135.848 196.353 134.706 195.593 133.604C195.573 133.577 195.613 133.551 195.633 133.577Z" fill="#263238"/>
<path d="M191.56 136.25C193.04 137.412 196.14 141.728 197.333 144.626C197.387 144.745 197.333 144.738 197.247 144.626C196.313 143.194 192.527 137.65 191.527 136.27C191.507 136.25 191.54 136.231 191.56 136.25Z" fill="#263238"/>
<path d="M187.647 137.94C189.486 139.85 190.938 142.09 191.927 144.54C191.973 144.659 191.88 144.639 191.807 144.54C190.427 142.316 189.36 140.58 187.573 137.999C187.547 137.94 187.607 137.881 187.647 137.94Z" fill="#263238"/>
<path d="M144 91.3374C137.913 82.8168 134.273 85.9716 135.493 95.2248C136.64 103.877 139.7 114.187 139.7 114.187L155.033 106.821C155.033 106.821 147.873 96.7956 144 91.3374Z" fill="#FFC727"/>
<path d="M147.7 94.6902C147.902 95.1715 148.047 95.6742 148.133 96.1884C148.227 96.7043 148.26 97.2291 148.233 97.7526C148.033 97.2688 147.89 96.7639 147.807 96.2478C147.708 95.7348 147.672 95.2117 147.7 94.6902V94.6902Z" fill="white"/>
<path d="M138.613 99.8712C139.592 99.4772 140.645 99.2971 141.7 99.3432C141.214 99.5411 140.706 99.6829 140.187 99.7656C139.668 99.8636 139.14 99.899 138.613 99.8712V99.8712Z" fill="white"/>
<path d="M139.007 86.6184C138.594 87.583 137.978 88.4492 137.2 89.1594C137.613 88.1948 138.229 87.3286 139.007 86.6184V86.6184Z" fill="white"/>
<path d="M152 103.851C151.798 104.334 151.54 104.792 151.233 105.217C150.934 105.648 150.585 106.042 150.193 106.392C150.606 105.427 151.222 104.561 152 103.851V103.851Z" fill="white"/>
<path d="M141.333 109.019C140.845 108.821 140.381 108.566 139.953 108.26C139.518 107.964 139.12 107.618 138.767 107.23C139.741 107.639 140.616 108.249 141.333 109.019V109.019Z" fill="white"/>
<path d="M146 93.9048C146.82 95.0202 147.667 96.1092 148.507 97.2048C148.293 96.6504 148.107 96.0894 147.947 95.5218H147.987C148.153 95.9574 148.347 96.3864 148.507 96.8418L148.747 97.5018C148.767 97.5468 148.785 97.5931 148.8 97.6404C149.467 98.4918 150.133 99.3432 150.747 100.214C151.5 101.257 152.227 102.313 152.96 103.369C153.693 104.425 154.433 105.739 155.227 106.801C155.3 106.894 153.893 107.461 153.74 107.534C153.587 107.606 153.507 107.481 153.653 107.435C153.8 107.389 154.92 106.709 154.933 106.696C154.2 105.626 153.353 104.643 152.587 103.607C151.82 102.571 151.06 101.534 150.32 100.485C148.82 98.3466 147.447 96.129 145.953 93.984L146 93.9048Z" fill="#263238"/>
<path d="M135.853 101.35C136.087 101.798 136.34 102.241 136.52 102.703L136.773 103.277C136.42 101.633 136.107 99.9768 135.74 98.3334C136.447 100.973 137.16 103.673 137.813 106.352C138.433 108.913 139.187 111.5 139.547 114.114C140.012 113.912 140.493 113.751 140.987 113.632C140.492 113.949 139.959 114.204 139.4 114.391C138.596 111.733 137.929 109.037 137.4 106.313C137.233 105.574 137.08 104.834 136.92 104.095C136.747 103.646 136.54 103.217 136.333 102.775C136.127 102.333 135.94 101.838 135.753 101.369C135.793 101.343 135.84 101.317 135.853 101.35Z" fill="#263238"/>
<path d="M139.927 111.639C142.06 110.451 150.973 105.884 152.967 105.039C153.107 104.98 153.18 105.039 153.04 105.131C148.809 107.565 144.447 109.769 139.973 111.731C139.92 111.745 139.867 111.672 139.927 111.639Z" fill="#263238"/>
<path d="M384.213 285.153H181.093L210.46 120.252H413.58L384.213 285.153Z" fill="#FFC727"/>
<path d="M279.98 103.171H213.507L210.46 120.252H281.6L279.98 103.171Z" fill="#FFC727"/>
<g opacity="0.1">
<path opacity="0.1" d="M384.213 285.153H181.093L210.46 120.252H413.58L384.213 285.153Z" fill="black"/>
<path opacity="0.1" d="M279.98 103.171H213.507L210.46 120.252H281.6L279.98 103.171Z" fill="black"/>
</g>
<path d="M206.333 110.141C205.889 108.252 205.889 106.288 206.333 104.399C206.778 106.288 206.778 108.252 206.333 110.141V110.141Z" fill="#263238"/>
<path d="M200.427 111.83C199.748 111.134 199.163 110.353 198.687 109.507C198.187 108.679 197.795 107.792 197.52 106.867C198.201 107.56 198.786 108.339 199.26 109.184C199.759 110.015 200.15 110.904 200.427 111.83V111.83Z" fill="#263238"/>
<path d="M196.16 116.219C194.287 115.656 192.569 114.673 191.14 113.348C192.075 113.617 192.971 114.003 193.807 114.497C194.661 114.971 195.451 115.55 196.16 116.219V116.219Z" fill="#263238"/>
<path d="M194.667 122.133C192.759 122.573 190.774 122.573 188.867 122.133C190.774 121.693 192.759 121.693 194.667 122.133V122.133Z" fill="#263238"/>
<path d="M196.4 127.981C195.693 128.649 194.905 129.228 194.053 129.703C193.217 130.197 192.321 130.583 191.387 130.852C192.091 130.18 192.879 129.601 193.733 129.129C194.568 128.633 195.464 128.247 196.4 127.981V127.981Z" fill="#263238"/>
<path d="M200.827 132.198C200.259 134.055 199.267 135.758 197.927 137.174C198.198 136.248 198.59 135.361 199.093 134.534C199.569 133.686 200.151 132.901 200.827 132.198V132.198Z" fill="#263238"/>
<path d="M206.8 133.657C207.032 134.596 207.144 135.561 207.133 136.528C207.148 137.495 207.036 138.46 206.8 139.399C206.561 138.46 206.449 137.495 206.467 136.528C206.456 135.561 206.568 134.596 206.8 133.657V133.657Z" fill="#263238"/>
<path d="M212.707 132C213.385 132.697 213.97 133.478 214.447 134.323C214.948 135.15 215.338 136.037 215.607 136.963C214.267 135.547 213.274 133.844 212.707 131.987V132Z" fill="#263238"/>
<path d="M216.967 127.578C217.902 127.844 218.799 128.23 219.633 128.726C220.487 129.198 221.276 129.777 221.98 130.449C221.044 130.183 220.148 129.797 219.313 129.301C218.459 128.829 217.671 128.25 216.967 127.578V127.578Z" fill="#263238"/>
<path d="M218.44 121.664C220.35 121.224 222.337 121.224 224.247 121.664C222.337 122.104 220.35 122.104 218.44 121.664V121.664Z" fill="#263238"/>
<path d="M216.733 115.817C217.439 115.149 218.228 114.572 219.08 114.101C219.913 113.6 220.81 113.212 221.747 112.946C220.316 114.273 218.596 115.255 216.72 115.817H216.733Z" fill="#263238"/>
<path d="M212.3 111.599C212.574 110.675 212.964 109.788 213.46 108.959C213.936 108.114 214.521 107.333 215.2 106.636C214.931 107.562 214.541 108.45 214.04 109.276C213.564 110.122 212.979 110.903 212.3 111.599V111.599Z" fill="#263238"/>
<path d="M383.913 285.153H180.36L151.453 126.238H355.013L383.913 285.153Z" fill="#FFC727"/>
<path d="M221.993 223.384C226.666 223.384 230.453 219.634 230.453 215.008C230.453 210.383 226.666 206.633 221.993 206.633C217.321 206.633 213.533 210.383 213.533 215.008C213.533 219.634 217.321 223.384 221.993 223.384Z" fill="#263238"/>
<path d="M288.873 223.384C293.546 223.384 297.333 219.634 297.333 215.008C297.333 210.383 293.546 206.633 288.873 206.633C284.201 206.633 280.413 210.383 280.413 215.008C280.413 219.634 284.201 223.384 288.873 223.384Z" fill="#263238"/>
<path d="M267.587 224.723L267.12 223.846C267.08 223.766 262.707 215.767 253.913 215.767C245.913 215.767 243.913 223.298 243.86 223.621L243.62 224.578L241.68 224.116L241.913 223.153C241.913 223.06 244.3 213.787 253.913 213.787C263.913 213.787 268.693 222.552 268.893 222.928L269.36 223.799L267.587 224.723Z" fill="#263238"/>
<path d="M370.473 214.368L370.333 213.708C370.767 213.616 371.193 213.517 371.62 213.404L371.787 214.064C371.333 214.177 370.913 214.276 370.473 214.368Z" fill="#263238"/>
<path d="M374.367 213.305L374.153 212.685C374.987 212.401 375.82 212.091 376.627 211.754L376.887 212.362C376.067 212.705 375.22 213.022 374.367 213.305ZM379.333 211.2L379.033 210.619C379.813 210.217 380.593 209.781 381.333 209.299L381.68 209.86C380.92 210.382 380.127 210.824 379.333 211.2ZM383.92 208.408L383.527 207.874C384.247 207.352 384.94 206.804 385.593 206.243L386.033 206.738C385.333 207.339 384.667 207.9 383.913 208.435L383.92 208.408ZM387.987 204.897L387.5 204.442C388.113 203.782 388.693 203.122 389.227 202.462L389.753 202.864C389.2 203.59 388.607 204.27 388 204.923L387.987 204.897ZM391.287 200.673L390.72 200.323C391.181 199.586 391.591 198.819 391.947 198.026L392.56 198.297C392.183 199.123 391.756 199.925 391.28 200.699L391.287 200.673ZM393.493 195.776L392.827 195.591C393.07 194.763 393.251 193.918 393.367 193.063L394.033 193.149C393.923 194.046 393.74 194.934 393.487 195.802L393.493 195.776ZM394.233 190.496H393.567V190.304C393.567 189.506 393.52 188.694 393.44 187.895L394.107 187.829C394.194 188.652 394.239 189.478 394.24 190.304L394.233 190.496ZM393.033 185.328C392.854 184.477 392.631 183.636 392.367 182.807L393.033 182.609C393.307 183.467 393.54 184.338 393.7 185.189L393.033 185.328ZM391.453 180.358C391.133 179.579 390.787 178.781 390.36 177.976L390.96 177.679C391.367 178.497 391.74 179.315 392.067 180.107L391.453 180.358ZM389.12 175.652C388.707 174.933 388.253 174.174 387.787 173.395L388.353 173.045C388.84 173.831 389.3 174.596 389.687 175.329L389.12 175.652ZM386.333 171.171C385.847 170.445 385.353 169.712 384.847 168.98L385.4 168.61C385.907 169.343 386.4 170.075 386.887 170.815L386.333 171.171ZM383.333 166.802C382.833 166.076 382.327 165.343 381.833 164.617L382.387 164.248C382.88 164.974 383.38 165.706 383.88 166.426L383.333 166.802ZM380.353 162.406C379.867 161.667 379.393 160.915 378.927 160.162L379.493 159.819C379.96 160.571 380.433 161.311 380.913 162.05L380.353 162.406ZM377.573 157.872C377.12 157.073 376.7 156.281 376.32 155.522L376.92 155.225C377.293 155.978 377.713 156.757 378.153 157.549L377.573 157.872ZM375.207 153.12C374.853 152.295 374.54 151.457 374.247 150.638L374.913 150.427C375.193 151.226 375.507 152.051 375.853 152.863L375.207 153.12ZM373.473 148.084C373.253 147.226 373.06 146.348 372.913 145.444L373.58 145.339C373.727 146.183 373.907 147.041 374.127 147.886L373.473 148.084ZM372.58 142.804C372.513 141.992 372.48 141.174 372.48 140.356V140.138H373.147V140.349C373.147 141.148 373.147 141.953 373.247 142.745L372.58 142.804ZM373.247 137.524L372.58 137.458C372.58 137.28 372.613 137.095 372.633 136.904C372.713 136.198 372.813 135.491 372.933 134.818L373.6 134.93C373.487 135.59 373.387 136.283 373.307 136.976C373.333 137.181 373.333 137.359 373.28 137.544L373.247 137.524ZM374.173 132.389L373.507 132.211C373.753 131.34 374.04 130.489 374.36 129.677L374.98 129.914C374.677 130.732 374.419 131.564 374.207 132.409L374.173 132.389ZM407.393 128.542C407.02 128.542 406.633 128.489 406.253 128.436C405.733 128.363 405.213 128.278 404.7 128.179L404.833 127.519C405.327 127.611 405.84 127.697 406.347 127.769C406.707 127.816 407.073 127.849 407.427 127.868L407.393 128.542ZM410.133 128.337L409.993 127.677C410.83 127.506 411.632 127.198 412.367 126.766L412.713 127.327C411.928 127.808 411.068 128.156 410.167 128.357L410.133 128.337ZM376.093 127.552L375.5 127.241C375.925 126.454 376.394 125.692 376.907 124.958L377.453 125.334C376.966 126.053 376.523 126.8 376.127 127.571L376.093 127.552ZM402.093 127.512C401.233 127.242 400.387 126.927 399.56 126.568L399.833 125.961C400.635 126.314 401.456 126.62 402.293 126.878L402.093 127.512ZM414.76 125.453L414.207 125.083C414.681 124.401 414.962 123.606 415.02 122.78L415.687 122.826C415.63 123.773 415.317 124.687 414.78 125.473L414.76 125.453ZM397.16 125.354C396.38 124.905 395.625 124.413 394.9 123.882L395.293 123.354C395.999 123.869 396.734 124.345 397.493 124.78L397.16 125.354ZM379.093 123.295L378.6 122.852C379.204 122.188 379.847 121.56 380.527 120.971L380.967 121.466C380.313 122.046 379.694 122.663 379.113 123.314L379.093 123.295ZM392.82 122.179C392.156 121.574 391.526 120.932 390.933 120.259L391.433 119.823C392.01 120.478 392.622 121.101 393.267 121.691L392.82 122.179ZM414.52 120.391C414.138 119.636 413.61 118.964 412.967 118.411L413.407 117.916C414.115 118.522 414.697 119.26 415.12 120.087L414.52 120.391ZM383.04 119.869L382.66 119.328C383.406 118.824 384.178 118.359 384.973 117.935L385.287 118.516C384.521 118.935 383.778 119.393 383.06 119.889L383.04 119.869ZM389.267 118.153C389.013 117.797 388.767 117.434 388.533 117.058L387.667 117.394L387.413 116.787L388.18 116.483C388.06 116.285 387.94 116.087 387.827 115.889L388.407 115.566C388.54 115.797 388.673 116.028 388.813 116.226C389.187 116.094 389.567 115.969 389.953 115.85L390.147 116.51C389.82 116.609 389.48 116.714 389.173 116.827C389.38 117.15 389.593 117.487 389.84 117.77L389.267 118.153ZM410.82 117.018C410.175 116.7 409.506 116.431 408.82 116.213L408.38 116.074L408.573 115.414L409.027 115.559C409.741 115.785 410.436 116.065 411.107 116.398L410.82 117.018ZM392.7 115.837L392.56 115.177C393.42 114.985 394.313 114.827 395.227 114.701L395.327 115.361C394.447 115.5 393.573 115.665 392.72 115.856L392.7 115.837ZM405.833 115.48C405 115.335 404.12 115.223 403.22 115.144L403.273 114.484C404.2 114.563 405.1 114.675 405.94 114.827L405.833 115.48ZM397.933 115.097L397.887 114.437C398.68 114.391 399.473 114.365 400.26 114.365H400.587V115.025H400.267C399.513 115.045 398.727 115.064 397.953 115.117L397.933 115.097ZM386.667 113.52C386.307 112.715 386 111.877 385.7 111.025L386.367 110.821C386.647 111.652 386.96 112.471 387.307 113.256L386.667 113.52ZM384.98 108.451C384.78 107.6 384.613 106.715 384.487 105.811L385.153 105.719C385.28 106.59 385.44 107.455 385.633 108.293L384.98 108.451ZM384.233 103.171C384.2 102.577 384.18 101.97 384.18 101.363C384.18 101.079 384.18 100.789 384.18 100.505H384.847C384.847 100.789 384.847 101.066 384.847 101.35C384.847 101.944 384.847 102.544 384.893 103.118L384.233 103.171ZM385.027 97.8912L384.36 97.8252C384.453 96.954 384.58 96.063 384.733 95.1852L385.4 95.2974C385.22 96.1752 385.093 97.02 385.007 97.9044L385.027 97.8912ZM385.94 92.7366L385.273 92.5782C385.487 91.7268 385.733 90.8688 386.007 90.0108L386.673 90.2154C386.373 91.08 386.127 91.9182 385.92 92.7498L385.94 92.7366ZM387.54 87.7404L386.92 87.5028C387.247 86.6778 387.587 85.8528 387.993 85.0542L388.593 85.3446C388.193 86.1366 387.84 86.9418 387.52 87.78L387.54 87.7404ZM389.833 83.0346L389.253 82.698C389.707 81.939 390.193 81.18 390.7 80.454L391.247 80.8302C390.727 81.5562 390.253 82.2954 389.813 83.0478L389.833 83.0346ZM392.84 78.738L392.32 78.3222C392.88 77.6622 393.48 76.9626 394.1 76.3422L394.58 76.7976C393.953 77.418 393.367 78.078 392.82 78.7512L392.84 78.738ZM396.467 74.9364L396.02 74.448C396.687 73.8606 397.353 73.2798 398.067 72.7188L398.48 73.2402C397.767 73.8012 397.087 74.3754 396.447 74.9496L396.467 74.9364ZM400.607 71.676L400.227 71.1282C400.953 70.6332 401.713 70.1448 402.487 69.6828L402.827 70.2438C402.053 70.7124 401.333 71.1942 400.587 71.6892L400.607 71.676ZM405.133 68.9502L404.82 68.3694C405.607 67.9536 406.42 67.5576 407.233 67.188L407.513 67.7886C406.667 68.1648 405.887 68.5608 405.113 68.9634L405.133 68.9502ZM409.953 66.759L409.707 66.1386C410.547 65.8152 411.393 65.4786 412.233 65.2344L412.447 65.8944C411.6 66.1452 410.76 66.4488 409.933 66.7722L409.953 66.759Z" fill="#263238"/>
<path d="M415.093 65.0892L414.927 64.4292C415.753 64.218 416.26 64.1256 416.26 64.1256L416.38 64.7856C416.38 64.7856 415.9 64.8846 415.093 65.0892Z" fill="#263238"/>
<path d="M426.88 60.8256C425.18 55.6116 413.793 57.486 416.013 64.3038C418.233 71.1216 428.58 66.0462 426.88 60.8256Z" fill="#263238"/>
<path d="M409.82 58.74C409.907 56.4498 413.12 54.6876 417.667 55.4994C422.213 56.3112 426.487 59.3472 426.487 59.3472C426.487 59.3472 422 62.04 417.407 62.535C412.813 63.03 409.733 61.0236 409.82 58.74Z" fill="#EBEBEB"/>
<path d="M426.487 59.334C424.127 59.334 421.773 59.268 419.42 59.1954C417.067 59.1228 414.707 59.004 412.353 58.8192C414.713 58.8192 417.073 58.8786 419.427 58.9512C421.78 59.0238 424.14 59.1426 426.487 59.334Z" fill="#263238"/>
<path d="M414.387 56.7006C415.726 57.3351 416.99 58.1166 418.153 59.0304C417.483 58.7189 416.833 58.3662 416.207 57.9744C415.575 57.5852 414.968 57.1599 414.387 56.7006V56.7006Z" fill="#263238"/>
<path d="M420.567 59.1161C419.361 60.0838 418.053 60.9202 416.667 61.611C417.879 60.6421 419.193 59.8057 420.587 59.1161H420.567Z" fill="#263238"/>
<path d="M421.253 57.8292C421.926 58.149 422.515 58.6189 422.973 59.202C422.637 59.0448 422.321 58.8475 422.033 58.6146C421.744 58.3831 421.482 58.1195 421.253 57.8292V57.8292Z" fill="#263238"/>
<path d="M414.153 72.303C415.573 74.1114 419.22 73.6758 422.427 70.389C425.633 67.1022 427.333 62.1588 427.333 62.1588C427.333 62.1588 422.08 62.5548 418.073 64.7988C414.067 67.0428 412.727 70.488 414.153 72.303Z" fill="#EBEBEB"/>
<path d="M427.333 62.1588C425.413 63.4788 423.547 64.944 421.673 66.363C419.8 67.782 417.967 69.2471 416.173 70.7585C418.093 69.4385 419.96 67.9799 421.827 66.5609C423.693 65.142 425.513 63.6768 427.333 62.1588Z" fill="#263238"/>
<path d="M419.053 71.28C419.41 70.6389 419.728 69.9777 420.007 69.3C420.29 68.6203 420.531 67.9237 420.727 67.2144C420.369 67.8549 420.051 68.5161 419.773 69.1944C419.492 69.875 419.252 70.5714 419.053 71.28Z" fill="#263238"/>
<path d="M422.667 65.7624C421.107 65.6798 419.542 65.7617 418 66.0066C418.777 66.0528 419.556 66.0528 420.333 66.0066C421.115 65.9688 421.894 65.8873 422.667 65.7624V65.7624Z" fill="#263238"/>
<path d="M423.953 66.4158C424.131 66.0898 424.27 65.7443 424.367 65.3862C424.465 65.0307 424.523 64.6654 424.54 64.2972C424.186 64.9505 423.985 65.6748 423.953 66.4158V66.4158Z" fill="#263238"/>
<path d="M426.88 60.8256C426.504 60.9466 426.099 60.9543 425.718 60.8477C425.337 60.7411 424.997 60.5249 424.74 60.2267C424.483 59.9284 424.322 59.5614 424.276 59.1722C424.23 58.7829 424.302 58.3889 424.482 58.0401C424.662 57.6912 424.943 57.4032 425.289 57.2125C425.635 57.0219 426.03 56.9371 426.425 56.9689C426.819 57.0007 427.195 57.1477 427.506 57.3914C427.816 57.635 428.046 57.9642 428.167 58.3373C428.328 58.8362 428.284 59.3782 428.043 59.8446C427.801 60.311 427.383 60.6637 426.88 60.8256Z" fill="#455A64"/>
<path d="M428.107 64.5942C427.73 64.7147 427.326 64.7221 426.946 64.6154C426.565 64.5087 426.225 64.2927 425.969 63.9947C425.712 63.6967 425.551 63.3301 425.505 62.9412C425.458 62.5524 425.53 62.1587 425.71 61.81C425.89 61.4612 426.17 61.1731 426.515 60.9821C426.86 60.791 427.255 60.7056 427.649 60.7366C428.043 60.7675 428.42 60.9135 428.73 61.1561C429.04 61.3987 429.271 61.7269 429.393 62.0994C429.474 62.3468 429.505 62.6077 429.485 62.867C429.464 63.1263 429.392 63.379 429.272 63.6107C429.153 63.8424 428.988 64.0485 428.788 64.2173C428.588 64.386 428.357 64.5141 428.107 64.5942V64.5942Z" fill="#455A64"/>
<path d="M209.54 62.9112C209.221 65.9426 208.057 68.8266 206.178 71.2412C204.299 73.6559 201.78 75.5062 198.9 76.5857C196.021 77.6652 192.896 77.9314 189.873 77.3546C186.849 76.7779 184.048 75.3808 181.78 73.3194L173.467 74.5272L177.627 67.4124C176.675 65.0973 176.269 62.5981 176.44 60.1045C176.61 57.611 177.352 55.1886 178.61 53.0215C179.868 50.8544 181.607 48.9995 183.697 47.5978C185.788 46.196 188.173 45.2843 190.672 44.9318C193.171 44.5792 195.719 44.7953 198.121 45.5634C200.524 46.3315 202.717 47.6315 204.536 49.3647C206.355 51.0979 207.751 53.2187 208.618 55.566C209.485 57.9132 209.8 60.4252 209.54 62.9112V62.9112Z" fill="white"/>
<path d="M209.54 62.9112C209.227 65.9411 208.074 68.8262 206.207 71.247C205.294 72.4713 204.195 73.5469 202.947 74.4348C201.726 75.3559 200.379 76.1004 198.947 76.6458C197.513 77.2046 196.007 77.5601 194.473 77.7018C193.706 77.7699 192.936 77.7854 192.167 77.748C191.395 77.7284 190.626 77.6489 189.867 77.5104C186.803 76.9523 183.956 75.5605 181.647 73.491L181.84 73.5504L173.54 74.811L172.933 74.9034L173.24 74.3754L177.373 67.2474V67.5312C176.398 65.1734 175.983 62.6252 176.161 60.0834C176.339 57.5417 177.105 55.0745 178.4 52.8726C179.693 50.6776 181.471 48.8004 183.6 47.3814C185.726 45.9812 188.144 45.0758 190.674 44.7329C193.204 44.3899 195.779 44.6185 198.207 45.4014C200.609 46.2104 202.798 47.5408 204.613 49.2954C206.425 51.0455 207.81 53.1812 208.664 55.5404C209.518 57.8996 209.817 60.4203 209.54 62.9112ZM209.54 62.9112C209.809 60.4325 209.5 57.9258 208.635 55.5844C207.771 53.243 206.374 51.1296 204.553 49.4075C202.732 47.6854 200.536 46.4005 198.134 45.6521C195.732 44.9037 193.189 44.7118 190.7 45.0912C188.236 45.4522 185.889 46.369 183.84 47.7708C181.808 49.1836 180.112 51.0167 178.867 53.1432C177.641 55.2744 176.918 57.6526 176.753 60.0996C176.591 62.5631 176.992 65.0312 177.927 67.32L177.987 67.4652L177.907 67.6038L173.72 74.7054L173.427 74.2698L181.747 73.1148H181.86L181.94 73.1874C184.164 75.2367 186.92 76.633 189.9 77.22C190.643 77.3698 191.396 77.4603 192.153 77.4906C192.91 77.5434 193.67 77.5434 194.427 77.4906C195.944 77.3695 197.438 77.0431 198.867 76.5204C200.298 76.0044 201.646 75.284 202.867 74.382C204.109 73.5013 205.211 72.4399 206.133 71.2338C208.024 68.8247 209.203 65.9438 209.54 62.9112Z" fill="#263238"/>
<path d="M184.893 68.871C184.881 68.6525 184.913 68.4337 184.989 68.2282C185.066 68.0227 185.184 67.835 185.336 67.6765C185.489 67.5181 185.672 67.3924 185.876 67.3072C186.08 67.222 186.299 67.1792 186.52 67.1814C186.973 67.1814 187.407 67.3594 187.727 67.6762C188.047 67.9931 188.227 68.4229 188.227 68.871C188.227 69.3191 188.047 69.7488 187.727 70.0657C187.407 70.3826 186.973 70.5606 186.52 70.5606C186.299 70.5628 186.08 70.5199 185.876 70.4347C185.672 70.3496 185.489 70.2239 185.336 70.0654C185.184 69.907 185.066 69.7192 184.989 69.5137C184.913 69.3083 184.881 69.0895 184.893 68.871V68.871ZM185.56 64.9704L185.173 51.876H187.84L187.453 64.9704H185.56Z" fill="#FFC727"/>
<path d="M191.233 68.871C191.221 68.653 191.253 68.4348 191.329 68.2298C191.405 68.0248 191.522 67.8373 191.674 67.679C191.826 67.5206 192.009 67.3948 192.211 67.3092C192.414 67.2236 192.633 67.1801 192.853 67.1814C193.306 67.1814 193.74 67.3594 194.06 67.6763C194.38 67.9931 194.56 68.4229 194.56 68.871C194.56 69.3191 194.38 69.7488 194.06 70.0657C193.74 70.3826 193.306 70.5606 192.853 70.5606C192.633 70.5618 192.414 70.5183 192.211 70.4328C192.009 70.3472 191.826 70.2213 191.674 70.063C191.522 69.9047 191.405 69.7172 191.329 69.5122C191.253 69.3071 191.221 69.0889 191.233 68.871V68.871ZM191.9 64.9704L191.533 51.876H194.2L193.813 64.9704H191.9Z" fill="#FFC727"/>
<path d="M197.567 68.871C197.554 68.6525 197.587 68.4337 197.663 68.2282C197.739 68.0227 197.857 67.835 198.009 67.6765C198.162 67.5181 198.346 67.3924 198.549 67.3072C198.753 67.222 198.972 67.1792 199.193 67.1814C199.646 67.1814 200.08 67.3594 200.4 67.6762C200.72 67.9931 200.9 68.4229 200.9 68.871C200.9 69.3191 200.72 69.7488 200.4 70.0657C200.08 70.3826 199.646 70.5606 199.193 70.5606C198.972 70.5628 198.753 70.5199 198.549 70.4347C198.346 70.3496 198.162 70.2239 198.009 70.0654C197.857 69.907 197.739 69.7192 197.663 69.5137C197.587 69.3083 197.554 69.0895 197.567 68.871ZM198.233 64.9704L197.847 51.876H200.513L200.133 64.9704H198.233Z" fill="#FFC727"/>
<rect width="500" height="330" stroke="black"/>
</svg>
